<mxfile host="Electron" modified="2023-11-18T11:50:41.829Z" agent="Mozilla/5.0 (X11; Linux x86_64) AppleWebKit/537.36 (KHTML, like Gecko) draw.io/22.1.2 Chrome/114.0.5735.289 Electron/25.9.4 Safari/537.36" etag="wL1PJ6_rxgKBoHQ4Nzr0" version="22.1.2" type="device">
  <diagram id="G4t1x3i_cumIOjZ8GDXV" name="Page-1">
    <mxGraphModel dx="2020" dy="1203" grid="1" gridSize="10" guides="1" tooltips="1" connect="1" arrows="1" fold="1" page="1" pageScale="1" pageWidth="850" pageHeight="1100" math="0" shadow="0">
      <root>
        <mxCell id="0" />
        <mxCell id="1" parent="0" />
        <mxCell id="4NMri5ObQx2eB0Vx6lmc-10" value="Receive notifications" style="edgeStyle=orthogonalEdgeStyle;rounded=0;orthogonalLoop=1;jettySize=auto;html=1;entryX=0;entryY=0.5;entryDx=0;entryDy=0;startArrow=classic;startFill=1;endArrow=none;endFill=0;" parent="1" source="4NMri5ObQx2eB0Vx6lmc-1" target="4NMri5ObQx2eB0Vx6lmc-4" edge="1">
          <mxGeometry relative="1" as="geometry" />
        </mxCell>
        <mxCell id="4NMri5ObQx2eB0Vx6lmc-1" value="Client" style="shape=umlActor;verticalLabelPosition=bottom;verticalAlign=top;html=1;outlineConnect=0;" parent="1" vertex="1">
          <mxGeometry x="40" y="100" width="30" height="60" as="geometry" />
        </mxCell>
        <mxCell id="4NMri5ObQx2eB0Vx6lmc-13" value="Receive notifications" style="edgeStyle=orthogonalEdgeStyle;rounded=0;orthogonalLoop=1;jettySize=auto;html=1;entryX=0;entryY=0.5;entryDx=0;entryDy=0;startArrow=classic;startFill=1;endArrow=none;endFill=0;" parent="1" source="4NMri5ObQx2eB0Vx6lmc-3" target="t2a8IH5FIuyG3FQy9CnU-1" edge="1">
          <mxGeometry relative="1" as="geometry" />
        </mxCell>
        <mxCell id="4NMri5ObQx2eB0Vx6lmc-3" value="Client" style="shape=umlActor;verticalLabelPosition=bottom;verticalAlign=top;html=1;outlineConnect=0;" parent="1" vertex="1">
          <mxGeometry x="40" y="199" width="30" height="60" as="geometry" />
        </mxCell>
        <mxCell id="4NMri5ObQx2eB0Vx6lmc-16" value="SUB to assigned partitions" style="rounded=0;orthogonalLoop=1;jettySize=auto;html=1;entryX=0;entryY=0.375;entryDx=0;entryDy=0;entryPerimeter=0;startArrow=classic;startFill=1;exitX=1;exitY=0.5;exitDx=0;exitDy=0;endArrow=none;endFill=0;" parent="1" source="4NMri5ObQx2eB0Vx6lmc-4" target="4NMri5ObQx2eB0Vx6lmc-9" edge="1">
          <mxGeometry x="0.0038" y="-2" relative="1" as="geometry">
            <mxPoint x="-1" as="offset" />
          </mxGeometry>
        </mxCell>
        <mxCell id="4NMri5ObQx2eB0Vx6lmc-4" value="&lt;font style=&quot;font-size: 12px&quot;&gt;Messaging 0&lt;/font&gt;" style="rounded=1;whiteSpace=wrap;html=1;gradientColor=#ffa500;fillColor=#ffcd28;strokeColor=#d79b00;" parent="1" vertex="1">
          <mxGeometry x="200" y="100" width="120" height="60" as="geometry" />
        </mxCell>
        <mxCell id="4NMri5ObQx2eB0Vx6lmc-9" value="PUB/SUB&lt;br&gt;backplane" style="strokeWidth=2;html=1;shape=mxgraph.flowchart.direct_data;whiteSpace=wrap;gradientColor=#97d077;fillColor=#d5e8d4;strokeColor=#82b366;" parent="1" vertex="1">
          <mxGeometry x="680" y="140" width="120" height="80" as="geometry" />
        </mxCell>
        <mxCell id="_z2AKbsd9psE2ULNNjwj-2" value="Each Messaging server listens only to assigned partitions&lt;br&gt;Only clients with user IDs for the respective partition are connected to the Messaging server listening messages from it&lt;br&gt;The traffic and clients for users based on user ID are distributed among the Messaging servers" style="shape=note;whiteSpace=wrap;html=1;backgroundOutline=1;darkOpacity=0.05;align=left;gradientColor=#b3b3b3;fillColor=#f5f5f5;strokeColor=#666666;" parent="1" vertex="1">
          <mxGeometry x="80" y="40" width="640" height="50" as="geometry" />
        </mxCell>
        <mxCell id="t2a8IH5FIuyG3FQy9CnU-1" value="&lt;font style=&quot;font-size: 12px&quot;&gt;Messaging 1&lt;/font&gt;" style="rounded=1;whiteSpace=wrap;html=1;gradientColor=#ffa500;fillColor=#ffcd28;strokeColor=#d79b00;" parent="1" vertex="1">
          <mxGeometry x="200" y="199" width="120" height="60" as="geometry" />
        </mxCell>
        <mxCell id="t2a8IH5FIuyG3FQy9CnU-2" value="SUB to assigned partitions" style="rounded=0;orthogonalLoop=1;jettySize=auto;html=1;entryX=-0.017;entryY=0.625;entryDx=0;entryDy=0;entryPerimeter=0;startArrow=classic;startFill=1;exitX=1;exitY=0.5;exitDx=0;exitDy=0;endArrow=none;endFill=0;" parent="1" source="t2a8IH5FIuyG3FQy9CnU-1" target="4NMri5ObQx2eB0Vx6lmc-9" edge="1">
          <mxGeometry x="0.0038" y="-2" relative="1" as="geometry">
            <mxPoint x="-1" as="offset" />
            <mxPoint x="290" y="140" as="sourcePoint" />
            <mxPoint x="690" y="180" as="targetPoint" />
          </mxGeometry>
        </mxCell>
      </root>
    </mxGraphModel>
  </diagram>
</mxfile>
